PathFileType	4	(X/Y/Z)	2014001\dynamic\2014001_C1_05.trc
DataRate	CameraRate	NumFrames	NumMarkers	Units	OrigDataRate	OrigDataStartFrame	OrigNumFrames
100.000000	100.000000	4	52	mm	100.000000	274	549
Frame#	Time	L_IAS			L_IPS			R_IPS			R_IAS			L_FTC			L_FLE			L_FME			L_FAX			L_TTC			L_FAL			L_TAM			L_FCC			L_FM1			L_FM2			L_FM5			R_FTC			R_FLE			R_FME			R_FAX			R_TTC			R_FAL			R_TAM			R_FCC			R_FM1			R_FM2			R_FM5			CV7			TV10			SXS			SJN			L_SIA			L_SRS			L_SAA			L_SAE			L_HLE			L_HME			L_UOA			L_RSP			L_UHE			L_HM2			L_HM5			R_SIA			R_SRS			R_SAA			R_SAE			R_HLE			R_HME			R_UOA			R_RSP			R_UHE			R_HM2			R_HM5			
		X1	Y1	Z1	X2	Y2	Z2	X3	Y3	Z3	X4	Y4	Z4	X5	Y5	Z5	X6	Y6	Z6	X7	Y7	Z7	X8	Y8	Z8	X9	Y9	Z9	X10	Y10	Z10	X11	Y11	Z11	X12	Y12	Z12	X13	Y13	Z13	X14	Y14	Z14	X15	Y15	Z15	X16	Y16	Z16	X17	Y17	Z17	X18	Y18	Z18	X19	Y19	Z19	X20	Y20	Z20	X21	Y21	Z21	X22	Y22	Z22	X23	Y23	Z23	X24	Y24	Z24	X25	Y25	Z25	X26	Y26	Z26	X27	Y27	Z27	X28	Y28	Z28	X29	Y29	Z29	X30	Y30	Z30	X31	Y31	Z31	X32	Y32	Z32	X33	Y33	Z33	X34	Y34	Z34	X35	Y35	Z35	X36	Y36	Z36	X37	Y37	Z37	X38	Y38	Z38	X39	Y39	Z39	X40	Y40	Z40	X41	Y41	Z41	X42	Y42	Z42	X43	Y43	Z43	X44	Y44	Z44	X45	Y45	Z45	X46	Y46	Z46	X47	Y47	Z47	X48	Y48	Z48	X49	Y49	Z49	X50	Y50	Z50	X51	Y51	Z51	X52	Y52	Z52	

275	2.74	319.7077636718751	879.328491210938	741.5415649414065	219.9576416015626	922.5615844726567	575.6824340820315	129.8783569335938	918.5769653320317	584.0732421875002	79.20389556884768	884.4721069335942	769.2767944335942	366.5756835937501	802.8784179687505	648.2068481445315	372.3444824218751	460.1558837890627	588.7210083007815	268.4678039550782	424.9028930664065	632.3833618164065	373.0493164062501	419.6934204101565	540.2814941406252	345.0496826171876	360.8652954101564	587.747741699219	325.934539794922	179.9120025634766	325.6848144531251	246.2391357421876	165.4823913574219	365.5527954101564	268.2972717285157	185.103744506836	282.202606201172	246.9597167968751	46.83529281616212	371.3304443359376	311.019744873047	43.15895462036134	378.0514221191407	351.6109924316407	63.22115325927737	333.8592224121095	13.93228816986085	787.174926757813	684.8327636718752	72.63933563232425	438.280456542969	713.667175292969	193.297088623047	436.1076354980471	713.073425292969	72.105094909668	370.5472717285157	697.1907348632815	131.2688446044922	369.8385009765626	753.6082763671877	136.9816894531251	64.00921630859378	652.6131591796877	224.3827972412111	85.13555145263675	686.9354248046877	194.8475646972657	23.75610542297364	609.127868652344	207.2789306640626	23.10644340515137	795.2197875976567	145.5815887451172	39.4047203063965	799.6441040039067	101.3068923950196	27.7870559692383	740.7097167968752	186.6115417480469	1385.185913085938	598.2513427734377	179.4943847656251	1149.13232421875	540.5703735351565	202.7287902832032	1158.994873046875	768.1904907226567	199.5803833007814	1319.955078125	724.2351074218752	273.1189575195314	1189.301025390625	522.100036621094	268.509735107422	1319.336059570313	544.385681152344	382.8806762695314	1316.359008789063	608.1257324218752	371.5168762207032	1328.239624023438	649.384948730469	444.3955688476565	1043.156127929688	614.2965087890627	366.6546936035157	1010.142517089844	599.2055664062502	415.300720214844	1006.832275390625	585.7134399414065	413.7982177734377	828.0383300781255	741.0195312500002	474.8050842285159	816.7136230468755	689.2881469726565	425.5103759765627	752.4956665039065	782.7788696289067	476.1638488769534	737.9288330078127	695.5031738281252	65.68892669677737	1195.56201171875	542.3894042968752	93.62659454345706	1320.135498046875	565.3328247070315	-1.384352803230286	1319.632202148438	651.7090454101565	15.22447490692139	1325.139526367188	698.1156005859377	-74.23517608642581	1024.216430664063	664.7400512695315	-1.497871518135071	1003.706298828125	634.693054199219	-48.15283966064456	996.566772460938	635.1729736328127	-35.7883987426758	832.514282226563	790.966674804688	-103.3431549072266	822.802612304688	746.1712036132815	-55.58645629882815	762.035095214844	845.727172851563	-106.415885925293	744.7292480468752	755.3046875000002	
276	2.75	318.871307373047	879.2902832031255	744.1653442382815	219.3906250000001	922.6393432617192	578.179138183594	129.2833862304688	918.5774536132817	586.5007324218752	78.32591247558597	884.2274780273442	771.5933227539067	365.7391967773439	802.8029174804692	651.202087402344	372.310760498047	459.9258728027346	592.7818603515627	268.2413024902345	424.4631958007815	636.4552001953127	373.0587158203126	419.7397766113284	544.3305664062502	345.0711059570314	360.6224365234376	591.5881958007815	325.3567504882814	181.5239715576172	328.4098205566407	245.7639617919923	166.6489257812501	368.3374938964845	267.495086669922	187.1366729736329	285.1233520507814	246.8790283203126	47.8453941345215	372.8250427246095	310.997283935547	43.94872665405275	379.1980590820314	351.3203125000001	64.98039245605472	335.2518310546876	13.29639053344727	786.9629516601567	686.9925537109377	72.31356048583987	438.0716857910159	714.7749023437502	192.9797515869142	435.9990539550784	714.008728027344	71.80872344970706	370.3342590332032	698.1514892578127	131.101058959961	369.5644836425782	754.4490966796877	136.9970703125001	63.97249221801761	652.6768188476565	224.5039215087892	85.12416839599612	686.9147949218752	194.8555603027345	23.75494766235352	609.1098632812502	207.2946624755861	23.0945110321045	795.203735351563	145.6402130126954	39.43734359741212	799.6458129882817	101.3648376464844	27.82469367980958	740.7108154296877	185.7290954589844	1385.155883789063	601.0310058593752	178.7133789062501	1149.14453125	543.2082519531252	201.8316192626954	1158.865356445313	770.838256835938	198.6868286132814	1319.85009765625	726.9646606445315	272.245819091797	1189.272827148438	524.8679809570315	267.6328430175782	1319.371948242188	547.1110839843752	381.9761352539064	1316.348266601563	610.8406372070315	370.6434936523439	1328.212158203125	652.0986328125002	443.4980468750002	1043.15869140625	616.5705566406252	365.7247314453126	1010.094421386719	601.719177246094	414.3402404785159	1006.845764160157	588.0175781250002	413.2073364257815	827.990112304688	743.2197875976565	474.0566711425784	816.6734008789067	691.399841308594	424.9771423339846	752.439392089844	785.014282226563	475.415466308594	737.8831787109377	697.5839843750002	64.89302062988284	1195.552734375	544.9798583984377	92.75111389160159	1320.146728515625	568.0422973632815	-2.268651962280274	1319.548095703125	654.401794433594	14.31895351409913	1325.021118164063	700.8104248046877	-75.04099273681643	1024.137817382813	666.896423339844	-2.2931866645813	1003.728271484375	636.782409667969	-48.95193862915042	996.6333007812505	637.2286376953127	-36.79841232299806	831.8513183593755	792.2114868164067	-104.4118576049805	822.3815307617192	747.5236816406252	-56.6899108886719	761.1057739257815	846.6423950195317	-107.519401550293	744.2844848632815	756.1268310546877	
277	2.76	318.0435180664064	879.2329101562505	746.7264404296877	218.8229980468751	922.6976928710942	580.6143798828127	128.6886138916016	918.561645507813	588.8706665039065	77.46231842041018	883.9666137695317	773.859497070313	364.9438781738282	802.6955566406255	654.1101074218752	372.2992248535157	459.656921386719	596.9210205078127	268.0079650878907	423.993835449219	640.5818481445315	373.1000061035157	419.7404785156252	548.464294433594	345.0962219238282	360.3505859375001	595.4978027343752	324.6663513183595	183.189682006836	331.1998596191407	245.2019348144532	167.8817138671876	371.1904907226564	266.5771484375001	189.2237396240235	288.0964660644532	246.7615966796876	48.90329742431643	374.4196777343751	310.9349670410157	44.78916549682619	380.4145812988282	350.9513244628907	66.83581542968753	336.6917724609376	12.66525459289551	786.7404174804692	689.096862792969	72.00195312500003	437.850280761719	715.9121704101565	192.6611328125001	435.8780822753909	714.9512329101565	71.52320098876956	370.1151123046876	699.1512451171877	130.9467163085938	369.2871704101564	755.3117675781252	137.0164642333985	63.935905456543	652.7438964843752	224.6317138671876	85.10723114013675	686.8968505859377	194.8674926757814	23.75537109375001	609.0935058593752	207.3142547607423	23.08234214782716	795.1891479492192	145.6972656250001	39.46536254882814	799.6521606445317	101.4224700927735	27.86157226562501	740.7117919921877	184.8703155517579	1385.11328125	603.7877197265627	177.9463043212891	1149.152099609375	545.8040161132815	200.9498138427736	1158.710083007813	773.4475097656255	197.8102569580079	1319.723999023438	729.6665649414065	271.3924865722657	1189.231689453125	527.6114501953127	266.7838745117189	1319.396850585938	549.8177490234377	381.0969848632814	1316.320556640625	613.5421142578127	369.7925109863282	1328.160888671875	654.8026123046877	442.6232910156252	1043.1435546875	618.8056640625002	364.8179931640626	1010.044250488282	604.161560058594	413.4030761718752	1006.847961425782	590.2742919921877	412.6351318359377	827.9048461914067	745.3523559570315	473.3361816406252	816.6078491210942	693.4314575195315	424.477722167969	752.3409423828127	787.1648559570317	474.696472167969	737.8095703125002	699.5691528320315	64.12002563476565	1195.53759765625	547.5299072265627	91.90116882324222	1320.150268554688	570.7186279296877	-3.134030103683473	1319.44775390625	657.0551757812502	13.42899227142335	1324.883544921875	703.464538574219	-75.80844879150393	1024.039794921875	668.9992675781252	-3.035694360733034	1003.731567382813	638.8457641601565	-49.69948577880862	996.682739257813	639.2402343750002	-37.82727050781251	831.1610717773442	793.4067993164067	-105.4568023681641	821.945190429688	748.7661132812502	-57.82263565063479	760.1467285156252	847.484008789063	-108.6164855957032	743.821472167969	756.8608398437502	
278	2.77	317.2276306152345	879.162963867188	749.219665527344	218.2506713867189	922.7335815429692	582.985290527344	128.0906524658204	918.5263061523442	591.181335449219	76.61641693115237	883.692504882813	776.076538085938	364.2021789550782	802.5595703125005	656.9111328125002	372.3150634765626	459.3514099121096	601.1560058593752	267.779510498047	423.4996032714846	644.7874145507815	373.1754150390626	419.6977844238284	552.7007446289065	345.129608154297	360.0518188476564	599.4934692382815	323.8685913085939	184.9160156250001	334.062225341797	244.5584106445314	169.1852569580079	374.1373596191407	265.5467224121095	191.3708190917969	291.1410217285157	246.6048278808595	50.01120758056643	376.1268615722657	310.8226318359376	45.67752838134767	381.7129516601564	350.4964599609376	68.78874969482425	338.1935424804689	12.03914546966553	786.510131835938	691.1420898437502	71.70732116699222	437.6164855957034	717.0836181640627	192.3497772216798	435.7461853027346	715.9102172851565	71.25177001953128	369.8909606933595	700.1912231445315	130.8075408935547	369.0043945312501	756.2006835937502	137.0401153564454	63.89970016479495	652.8150024414065	224.7632141113282	85.08380126953128	686.884460449219	194.8841247558595	23.75837516784669	609.0797119140627	207.3409881591798	23.06413269042969	795.177368164063	145.7530364990235	39.4879722595215	799.6638793945317	101.4799423217774	27.8976230621338	740.713562011719	184.0349731445313	1385.060302734375	606.5217895507815	177.1894226074219	1149.158325195313	548.3545532226565	200.0827026367189	1158.530029296875	776.0158691406255	196.950408935547	1319.577758789063	732.3408203125002	270.5594787597657	1189.1845703125	530.3217773437502	265.9627685546876	1319.41357421875	552.5054321289065	380.2435302734376	1316.276977539063	616.2313232421877	368.9628906250001	1328.086791992188	657.4970703125002	441.7716064453127	1043.111938476563	621.0088500976565	363.9354248046876	1009.993286132813	606.5369262695315	412.4909973144534	1006.84033203125	592.490417480469	412.0778808593752	827.779663085938	747.422058105469	472.6453552246096	816.517700195313	695.3858032226565	424.0131530761721	752.198181152344	789.2324829101567	474.0101013183596	737.7082519531252	701.4588012695315	63.36648559570315	1195.521484375	550.0393066406252	91.07501983642581	1320.148559570313	573.3651123046877	-3.980594635009767	1319.33544921875	659.6710205078127	12.55495548248292	1324.729858398438	706.0801391601565	-76.53961181640628	1023.926086425782	671.050476074219	-3.728389739990236	1003.719055175782	640.883483886719	-50.3982849121094	996.7178344726567	641.2092895507815	-38.87577438354494	830.449829101563	794.5652465820317	-106.4731445312501	821.500122070313	749.8955078125002	-58.97995376586917	759.165954589844	848.257934570313	-109.7038726806641	743.3455200195315	757.5157470703127	
